PathFileType  4	(X/Y/Z) C:\Users\antoi\Documents\MyRepositories\mobilecap\ResultsAnalysis
DataRate	CameraRate	NumFrames	NumMarkers	Units	OrigDataRate	OrigDataStartFrame	OrigNumFrames
100.0	100.0	4	51	mm	100.0	151	301
Frame#	Time	r_knee			r_shank_antsup			r_ankle			r_calc			r_5meta			r_toe			L_knee			L_shank_antsup			L_ankle			L_calc			L_5meta			L_toe			r_sh2			r_sh3			r_sh4			L_sh2			L_sh3			r_thigh1			r_thigh2			r_thigh3			r_thigh4			r_thigh5			L_thigh1			L_thigh2			L_thigh3			L_thigh4			r.ASIS			r.PSIS			L.ASIS			L.PSIS			C7			R_Shoulder			L_Shoulder			R_Sternum			L_Sternum			R_humerus			R_elbow_med			R_elbow_lat			R_forearm			R_wrist_radius			R_wrist_ulna			L_humerus			L_elbow_med			L_elbow_lat			L_forearm			L_wrist_radius			L_wrist_ulna			R_HJC			L_HJC			R_HJC_reg			L_HJC_reg			
		X1	Y1	Z1	X2	Y2	Z2	X3	Y3	Z3	X4	Y4	Z4	X5	Y5	Z5	X6	Y6	Z6	X7	Y7	Z7	X8	Y8	Z8	X9	Y9	Z9	X10	Y10	Z10	X11	Y11	Z11	X12	Y12	Z12	X13	Y13	Z13	X14	Y14	Z14	X15	Y15	Z15	X16	Y16	Z16	X17	Y17	Z17	X18	Y18	Z18	X19	Y19	Z19	X20	Y20	Z20	X21	Y21	Z21	X22	Y22	Z22	X23	Y23	Z23	X24	Y24	Z24	X25	Y25	Z25	X26	Y26	Z26	X27	Y27	Z27	X28	Y28	Z28	X29	Y29	Z29	X30	Y30	Z30	X31	Y31	Z31	X32	Y32	Z32	X33	Y33	Z33	X34	Y34	Z34	X35	Y35	Z35	X36	Y36	Z36	X37	Y37	Z37	X38	Y38	Z38	X39	Y39	Z39	X40	Y40	Z40	X41	Y41	Z41	X42	Y42	Z42	X43	Y43	Z43	X44	Y44	Z44	X45	Y45	Z45	X46	Y46	Z46	X47	Y47	Z47	X48	Y48	Z48	X49	Y49	Z49	X50	Y50	Z50	X51	Y51	Z51	

151	1.50000000	-914.16184	823.25791	-414.37549	-955.76317	795.34930	-381.78301	-1153.50568	491.87599	-426.48335	-1220.76198	499.18133	-476.99019	-1098.08230	357.53327	-405.57184	-1048.57251	359.89418	-457.22984	-895.77834	836.28789	-730.38040	-908.63136	752.26787	-748.07675	-1130.36947	516.44490	-721.95423	-1199.64114	525.42069	-670.04980	-1084.61099	383.85088	-742.61835	-1037.17754	374.20969	-689.71393	-1021.14178	699.86213	-376.79414	-897.99416	761.01765	-420.19843	-961.92310	664.58386	-428.18123	-974.72625	811.02325	-753.31240	-1045.74790	711.01487	-754.68165	-863.45358	1111.54365	-379.97759	-863.94617	997.01301	-374.39582	-819.94743	977.64348	-403.95922	-813.14791	1106.24071	-480.74982	-806.80329	996.24706	-467.86310	-861.19676	1155.63578	-734.97961	-859.03766	1014.38642	-753.70292	-972.80914	1153.96716	-741.20331	-971.35527	1012.96839	-723.92457	-803.39398	1277.07961	-437.21126	-977.31623	1364.08076	-497.88746	-820.74480	1275.05439	-667.22951	-985.21529	1370.08956	-595.96906	-755.73011	1780.51150	-545.05099	-704.67916	1757.44178	-428.29978	-724.99139	1751.74812	-671.27212	-667.83479	1666.30406	-531.16960	-679.59206	1656.03297	-562.46869	-570.10667	1614.78777	-318.51891	-538.72331	1489.75511	-328.84296	-514.36884	1540.51457	-284.63951	-439.67036	1638.29174	-357.61092	-415.90656	1708.92795	-424.97709	-377.81559	1687.78916	-418.96230	-618.39179	1596.57378	-787.83313	-584.42174	1465.24736	-769.67275	-559.57413	1505.42031	-823.14973	-477.62613	1598.50347	-737.23353	-448.41681	1662.32926	-661.11618	-412.10514	1637.69943	-666.98452	-899.83117	1220.82061	-464.64748	-921.06054	1233.54464	-653.70498	-890.84110	1223.68441	-465.23346	-903.04139	1232.96462	-616.71075	
152	1.51000000	-903.50319	838.84916	-412.81394	-945.87388	811.01510	-380.29740	-1138.11122	503.88573	-423.47634	-1203.51485	516.91188	-473.90606	-1092.26737	364.26565	-404.22730	-1042.69089	362.66147	-455.94575	-881.34717	849.64716	-730.50521	-893.16496	765.67600	-748.41249	-1114.35117	530.26594	-722.37826	-1182.51583	541.94942	-669.62038	-1073.75358	395.45159	-742.92010	-1026.42239	383.77860	-690.33290	-1010.34708	715.08532	-374.77914	-887.67796	776.97465	-418.05902	-950.02515	679.34228	-425.03270	-959.55556	824.07698	-753.98968	-1030.00680	723.61680	-755.80922	-849.34452	1126.24049	-379.90108	-850.78983	1011.64137	-374.35866	-806.78416	992.17951	-403.67372	-799.39323	1120.78866	-480.23343	-793.61388	1010.49872	-467.86718	-847.95663	1169.67285	-735.51181	-845.60381	1028.41983	-754.42738	-959.55819	1167.56832	-740.88531	-957.29948	1026.76163	-723.59905	-789.54192	1292.73723	-437.79912	-964.46527	1377.75706	-497.36976	-807.53677	1292.21266	-667.81343	-972.70898	1383.53011	-595.10281	-746.45771	1795.46313	-544.55284	-695.86266	1772.26621	-426.68417	-715.27084	1766.76288	-670.49797	-658.47998	1682.10674	-529.58139	-669.88011	1671.38349	-561.70173	-567.45953	1626.00174	-311.81005	-538.97116	1499.69175	-322.30768	-514.40883	1549.94624	-277.61069	-438.80091	1646.93631	-350.45447	-413.92119	1716.65043	-418.36217	-375.81096	1696.34477	-410.39864	-614.95527	1608.76862	-790.83455	-583.95457	1476.07574	-774.06628	-559.21786	1516.24294	-827.36428	-474.82150	1605.85806	-740.22186	-443.74900	1668.17853	-663.78839	-408.08233	1642.80757	-670.11917	-884.90927	1235.20165	-465.26335	-906.98959	1248.86542	-654.15845	-876.36802	1239.31580	-465.50329	-889.14347	1248.26304	-616.97657	
153	1.52000000	-890.93588	853.17182	-411.28092	-933.78027	825.66139	-379.28278	-1121.86998	516.57471	-421.03465	-1185.08019	534.17366	-471.73007	-1085.12682	373.12303	-403.04543	-1035.46970	367.89979	-454.16160	-865.49105	862.16855	-730.99563	-876.64351	778.11770	-749.13211	-1099.84203	544.64958	-722.27395	-1167.32099	557.11328	-668.77224	-1060.75233	409.24579	-742.71853	-1012.98517	397.41363	-690.83891	-997.48868	729.38043	-372.89319	-874.95493	791.57397	-416.02167	-935.87241	693.91115	-421.02464	-942.69076	836.77053	-754.85944	-1013.79695	736.71168	-756.90084	-836.02763	1140.27584	-379.52994	-837.50086	1025.64763	-374.03263	-793.37290	1006.17295	-403.03683	-785.79362	1135.18385	-478.81271	-779.94402	1024.53264	-467.61341	-835.51271	1183.08221	-736.25923	-832.07723	1041.72132	-755.02393	-947.11412	1179.79001	-740.13638	-943.29830	1039.13266	-722.54713	-776.78954	1307.44683	-438.24437	-952.34931	1390.95893	-497.21298	-795.27055	1307.88770	-667.87513	-960.86149	1396.30305	-594.74993	-736.75514	1809.35024	-544.22352	-686.45835	1785.41175	-425.08448	-705.73471	1780.17838	-670.48219	-649.91614	1695.67928	-528.89308	-659.91040	1685.27695	-560.69090	-565.24486	1635.41409	-305.46953	-540.04558	1508.02239	-315.87520	-515.09495	1557.58593	-270.60301	-437.43825	1652.96706	-343.32049	-410.33096	1721.13260	-411.89317	-372.43697	1701.51982	-401.33824	-611.82892	1619.22298	-793.85274	-583.95094	1484.99340	-777.89130	-559.41437	1525.01928	-831.35164	-471.63279	1610.60989	-743.67798	-438.49298	1671.40759	-666.67804	-403.59075	1644.92631	-673.40267	-871.35606	1248.97959	-465.62777	-893.92791	1263.06979	-654.43369	-863.11710	1254.33307	-465.48960	-876.31625	1262.61942	-616.73556	
154	1.53000000	-876.01345	865.88484	-409.93946	-918.71925	838.79152	-378.11992	-1106.45934	530.45168	-419.10967	-1167.89563	550.91322	-471.00629	-1076.52957	384.65931	-401.59463	-1026.61139	377.04616	-451.59205	-847.93275	874.15808	-731.83670	-859.19042	789.76679	-749.77344	-1085.86235	559.65576	-721.80824	-1153.20184	571.90848	-668.03733	-1046.06338	424.65868	-742.17622	-997.76189	413.67027	-690.95741	-982.25306	742.10616	-371.28722	-859.51292	804.18586	-414.28494	-920.16227	706.94208	-418.03608	-924.27059	849.39169	-755.75462	-997.08958	750.38938	-757.32492	-823.40993	1153.50251	-379.00467	-823.96056	1038.80563	-373.40284	-779.44093	1019.56549	-402.08765	-772.44415	1148.88682	-477.38823	-765.84739	1038.11920	-466.85672	-823.75390	1195.64000	-736.93229	-818.41406	1054.26349	-755.65032	-935.28836	1190.62865	-739.09791	-929.13534	1049.99049	-721.11422	-765.26258	1321.04478	-438.50568	-941.00487	1403.62063	-497.31253	-783.94682	1321.72151	-667.62096	-949.65081	1408.25119	-594.81684	-726.65957	1821.92294	-544.00114	-676.79099	1797.01919	-423.70762	-695.80804	1792.11294	-670.87432	-641.31938	1707.54094	-528.60846	-649.59210	1697.81008	-559.49194	-563.37512	1643.24729	-299.74263	-541.97755	1514.96100	-309.60026	-516.44126	1563.66168	-263.65189	-435.50659	1656.39873	-336.06188	-404.84718	1722.26421	-405.52040	-367.57749	1703.14000	-391.94611	-608.81238	1627.81208	-796.71646	-585.90852	1492.21908	-781.39167	-560.15146	1531.83911	-834.86997	-468.26709	1612.81471	-747.18708	-432.63081	1672.07078	-669.69066	-398.73474	1644.15656	-676.89357	-859.26638	1261.99042	-465.67342	-882.00619	1275.92720	-654.47057	-851.28070	1268.55617	-465.19340	-864.66724	1275.72612	-616.15041	
